PathFileType	4	(X/Y/Z)	s11c0401.trc
DataRate	CameraRate	NumFrames	NumMarkers	Units	OrigDataRate	OrigDataStartFrame	OrigNumFrames
200	200	4	48	mm	200	1500	2000
Frame#	Time	racr			lacr			c7			jug			rlel			rdr			llel			ldr			s2			lic			ric			lasi			rasi			rpsi			lpsi			rgt			lgt			rth1			rth2			rth3			rth4			rlfc			rmfc			rsh1			rsh2			rsh3			rsh4			rlmal			rcal			rtoe			rmt5			lth1			lth2			lth4			lth3			llfc			lmfc			llmal			lcal			lmt5			lsh1			lsh2			lsh3			lsh4			ltoe			SBIKE			LBIKE			RBIKE			
		X1	Y1	Z1	X2	Y2	Z2	X3	Y3	Z3	X4	Y4	Z4	X5	Y5	Z5	X6	Y6	Z6	X7	Y7	Z7	X8	Y8	Z8	X9	Y9	Z9	X10	Y10	Z10	X11	Y11	Z11	X12	Y12	Z12	X13	Y13	Z13	X14	Y14	Z14	X15	Y15	Z15	X16	Y16	Z16	X17	Y17	Z17	X18	Y18	Z18	X19	Y19	Z19	X20	Y20	Z20	X21	Y21	Z21	X22	Y22	Z22	X23	Y23	Z23	X24	Y24	Z24	X25	Y25	Z25	X26	Y26	Z26	X27	Y27	Z27	X28	Y28	Z28	X29	Y29	Z29	X30	Y30	Z30	X31	Y31	Z31	X32	Y32	Z32	X33	Y33	Z33	X34	Y34	Z34	X35	Y35	Z35	X36	Y36	Z36	X37	Y37	Z37	X38	Y38	Z38	X39	Y39	Z39	X40	Y40	Z40	X41	Y41	Z41	X42	Y42	Z42	X43	Y43	Z43	X44	Y44	Z44	X45	Y45	Z45	X46	Y46	Z46	X47	Y47	Z47	X48	Y48	Z48	
1500	7.5000	791.500126	1310.125064	-82.347243	746.698579	1318.986453	-407.248977	755.600628	1404.114024	-238.720486	689.105626	1227.831600	-238.165033	604.687860	1114.137624	46.145292	760.388543	949.160925	-75.542209	569.782850	1168.097466	-619.892818	749.668062	952.825941	-503.914957	132.208132	1331.035605	-222.532306	335.492593	1297.982008	-435.395882	350.980912	1262.840758	-34.692092	342.522920	1212.955837	-407.547461	351.582250	1196.090723	-81.172043	199.293191	1390.759194	-168.278470	187.263966	1390.851616	-267.654912	277.473432	1146.234852	-25.356808	216.881594	1190.452111	-444.341417	357.573339	1026.489915	-31.814510	421.290693	969.571701	-57.168262	446.581208	887.324055	-74.428253	447.701342	990.182052	-72.438246	492.081260	793.042427	-99.276616	469.042702	779.850954	-227.622230	374.530589	680.808162	-79.315692	324.047899	610.390613	-94.825014	245.813838	571.268782	-90.809646	339.772562	595.023145	-128.103030	135.113999	501.061452	-95.493968	93.788984	550.751334	-143.277209	185.748049	278.122788	-150.650994	133.018271	327.759939	-79.385001	307.862942	1060.530526	-459.717132	371.067640	1003.037926	-454.950701	404.878409	1021.712553	-447.915967	397.601178	917.293177	-450.730316	460.808464	787.396383	-426.462530	470.402777	773.044839	-301.418286	303.885465	385.792713	-416.218418	239.127134	358.057060	-383.754250	425.971064	269.734691	-457.216630	411.424049	668.976648	-447.561269	408.101008	584.118259	-435.661558	363.295042	507.788518	-433.983174	438.377210	577.071163	-412.148907	525.760627	272.221595	-391.207165	-214.675901	959.214337	-257.506307	-17.756721	81.022924	-461.014503	-17.733063	81.227069	-62.304664	
1501	7.5050	790.362448	1309.818018	-80.494128	747.098274	1318.339861	-405.211262	755.056435	1403.761431	-236.871236	688.640064	1227.495304	-236.230856	603.555640	1113.117423	47.247495	760.222418	949.071416	-75.330649	571.375034	1168.124172	-619.222564	749.390728	952.659722	-503.937615	131.457039	1330.407587	-224.183795	335.583067	1295.612045	-435.929414	349.809780	1263.407496	-35.921877	343.245235	1210.916949	-408.346480	350.928064	1197.118206	-82.760304	198.468519	1390.293563	-170.293634	186.748951	1389.777905	-269.683184	277.985399	1147.476021	-26.114116	215.650279	1186.906433	-444.958280	359.405533	1028.749832	-33.094402	424.599207	973.224810	-57.921913	451.791794	891.463447	-74.973904	450.689116	994.298914	-73.308219	498.966442	797.915806	-99.692922	477.232704	784.972140	-228.291297	379.971936	687.229109	-79.861514	328.672168	617.531305	-95.399572	249.932768	579.323250	-91.463927	344.470360	601.701945	-128.400280	138.326127	511.178033	-96.018213	96.403824	560.805780	-143.445951	189.576887	288.679746	-150.961047	136.891930	338.113310	-79.509897	304.106377	1055.007204	-460.837350	365.640706	995.711229	-455.706619	398.519514	1013.584001	-449.207477	389.705087	909.128950	-450.894516	448.806647	778.592711	-426.824536	456.722987	764.550852	-301.680713	299.691666	375.337639	-417.030750	235.379167	347.950888	-383.712357	422.070550	259.281601	-457.206970	400.405532	661.297689	-447.714794	399.185728	576.108353	-436.056345	355.975729	499.179958	-434.231618	429.928526	570.214080	-414.206947	521.979263	261.798910	-391.237142	-214.727348	959.099257	-257.378662	-17.758048	80.974002	-461.042648	-17.760143	81.225928	-62.299511	
1502	7.5100	789.134112	1309.616147	-78.688240	747.447980	1317.919605	-403.202571	754.346973	1403.711685	-235.261883	688.115187	1227.422272	-234.410087	602.413304	1112.201068	48.373266	760.012181	948.885717	-75.237258	573.069206	1168.171424	-618.338315	749.401484	952.098455	-503.137642	130.769696	1329.502867	-225.860471	335.658694	1293.339016	-436.595573	348.743489	1263.873638	-37.256161	343.947938	1209.281901	-409.068857	350.215701	1198.184501	-84.214760	197.789802	1389.657773	-172.238751	186.201493	1388.453494	-271.634684	278.276969	1148.473648	-26.976258	214.336333	1183.281115	-445.826051	361.371462	1031.212821	-34.524498	427.834757	976.901867	-58.550582	457.055468	895.946634	-74.947926	453.576026	998.567463	-74.208129	505.906986	802.982399	-100.081786	485.895812	790.047188	-228.857676	385.778335	693.707789	-80.409230	333.401891	624.492863	-96.006734	254.180155	587.463134	-92.076412	349.178509	608.576315	-128.795470	141.887147	521.073985	-96.648997	99.109020	570.657333	-143.804322	194.046426	299.098265	-151.359148	141.438787	348.324075	-79.625678	300.285525	1049.522936	-461.994058	359.775537	988.248092	-456.436179	392.315504	1005.345920	-450.134839	381.225189	901.017224	-450.869376	437.039710	770.469110	-426.825955	443.940434	757.574351	-301.392453	295.142415	364.640149	-416.677840	231.220971	338.305368	-383.681821	417.716523	249.139799	-457.156686	389.527873	654.094037	-448.064653	389.988789	568.983899	-436.548871	348.424735	491.092073	-434.289168	421.151692	563.660322	-415.779136	517.637699	251.609232	-391.100460	-214.755590	959.076946	-257.320222	-17.753348	80.971305	-461.041674	-17.749133	81.183019	-62.293659	
1503	7.5150	787.843767	1309.469336	-76.914794	747.730257	1317.728484	-401.191490	753.628823	1403.473306	-233.357008	687.591861	1227.154711	-232.744397	601.395372	1111.113816	49.567583	759.722676	948.659337	-75.338931	574.697845	1168.293741	-617.524110	749.406847	951.514647	-502.359935	130.123213	1328.430996	-227.547342	335.672345	1291.353220	-437.362927	347.700928	1264.232521	-38.409672	344.651980	1208.113751	-409.763068	349.547463	1198.929214	-85.784505	197.085133	1388.715269	-174.272380	185.173840	1386.629701	-269.110015	278.486045	1149.455061	-27.900321	212.889456	1179.635347	-446.915197	363.397582	1033.522510	-36.118702	431.373586	980.651667	-59.961829	462.295454	900.204295	-75.532306	456.333336	1002.896074	-74.835783	512.679033	807.990507	-100.779140	492.883815	794.954786	-229.347664	391.391689	700.187470	-80.933010	338.183411	631.654859	-96.631530	258.654597	595.513082	-92.799114	354.046806	615.192737	-129.211508	145.733944	530.754826	-97.430443	102.295567	580.365166	-144.429021	199.282675	309.431598	-151.684030	146.592764	358.398641	-79.817421	295.861813	1044.085320	-463.043107	353.443869	980.906280	-457.169125	386.310044	997.027747	-450.642225	372.035738	893.177465	-450.540925	425.312073	763.362891	-426.712184	431.221566	751.656517	-300.728069	289.991771	354.825942	-416.558564	226.551994	329.320716	-383.767073	412.813478	239.438213	-457.051466	378.911786	646.955061	-448.403231	380.892639	561.863601	-436.853043	340.672784	483.221811	-434.227857	412.366684	556.894356	-416.195884	512.750948	241.679068	-390.974327	-214.790519	959.030724	-257.206497	-17.766555	80.963500	-461.024691	-17.752921	81.141705	-62.272494	
